<svg xmlns="http://www.w3.org/2000/svg" xmlns:xlink="http://www.w3.org/1999/xlink" width="500" zoomAndPan="magnify" viewBox="0 0 375 374.999991" height="500" preserveAspectRatio="xMidYMid meet" version="1.0"><defs><clipPath id="id1"><path d="M 31.597656 31.597656 L 343.597656 31.597656 L 343.597656 343.597656 L 31.597656 343.597656 Z M 31.597656 31.597656 " clip-rule="nonzero"/></clipPath></defs><rect x="-37.5" width="450" fill="#ffffff" y="-37.499999" height="449.999989" fill-opacity="1"/><rect x="-37.5" width="450" fill="#1c191a" y="-37.499999" height="449.999989" fill-opacity="1"/><rect x="-37.5" width="450" fill="#ffffff" y="-37.499999" height="449.999989" fill-opacity="1"/><rect x="-37.5" width="450" fill="#1c191a" y="-37.499999" height="449.999989" fill-opacity="1"/><path fill="#07a5c3" d="M 112.847656 240.757812 L 166.019531 187.589844 L 203.992188 149.613281 C 202.957031 147.558594 202.394531 145.269531 202.394531 142.824219 C 202.394531 134.4375 209.179688 127.632812 217.589844 127.632812 C 225.976562 127.632812 232.761719 134.4375 232.761719 142.824219 C 232.761719 151.210938 225.976562 158.019531 217.589844 158.019531 C 215.148438 158.019531 212.832031 157.4375 210.78125 156.398438 L 179.589844 187.589844 L 112.847656 254.355469 L 112.847656 277.136719 L 217.589844 277.136719 C 242.207031 277.15625 262.351562 256.992188 262.351562 232.371094 C 262.351562 216.832031 254.332031 203.0625 242.207031 195.023438 L 211.601562 225.628906 C 212.640625 227.683594 213.203125 229.972656 213.203125 232.417969 C 213.203125 240.824219 206.414062 247.609375 198.007812 247.609375 C 189.621094 247.609375 182.832031 240.824219 182.832031 232.417969 C 182.832031 224.03125 189.621094 217.242188 198.007812 217.242188 C 200.449219 217.242188 202.761719 217.804688 204.816406 218.84375 L 233.214844 190.421875 L 249.210938 174.445312 C 257.316406 166.320312 262.351562 155.125 262.351562 142.824219 C 262.351562 118.183594 242.207031 98.042969 217.589844 98.042969 L 112.847656 98.042969 L 112.847656 146.390625 L 119.222656 140.015625 C 118.640625 138.871094 118.316406 137.574219 118.316406 136.191406 C 118.316406 131.457031 122.140625 127.632812 126.875 127.632812 C 131.609375 127.632812 135.433594 131.457031 135.433594 136.191406 C 135.433594 140.921875 131.609375 144.75 126.875 144.75 C 125.492188 144.75 124.195312 144.425781 123.046875 143.839844 L 112.847656 154.066406 L 112.847656 190.679688 L 127.113281 176.390625 L 158 145.503906 C 157.175781 143.839844 156.703125 141.960938 156.703125 139.996094 C 156.703125 133.164062 162.234375 127.632812 169.066406 127.632812 C 175.875 127.632812 181.40625 133.164062 181.40625 139.996094 C 181.40625 146.800781 175.875 152.335938 169.066406 152.335938 C 167.078125 152.335938 165.195312 151.882812 163.53125 151.039062 L 138.15625 176.390625 L 112.847656 201.722656 Z M 112.847656 240.757812 " fill-opacity="1" fill-rule="evenodd"/><path fill="#07a5c3" d="M 204.792969 232.417969 C 204.792969 232.863281 204.75 233.304688 204.664062 233.738281 C 204.574219 234.175781 204.445312 234.601562 204.277344 235.011719 C 204.105469 235.425781 203.898438 235.816406 203.648438 236.1875 C 203.402344 236.558594 203.121094 236.898438 202.804688 237.214844 C 202.492188 237.53125 202.148438 237.8125 201.777344 238.058594 C 201.40625 238.308594 201.015625 238.515625 200.605469 238.6875 C 200.191406 238.855469 199.769531 238.984375 199.332031 239.074219 C 198.894531 239.160156 198.453125 239.203125 198.007812 239.203125 C 197.5625 239.203125 197.121094 239.160156 196.683594 239.074219 C 196.246094 238.984375 195.820312 238.855469 195.410156 238.6875 C 194.996094 238.515625 194.605469 238.308594 194.234375 238.058594 C 193.867188 237.8125 193.523438 237.53125 193.207031 237.214844 C 192.890625 236.898438 192.609375 236.558594 192.363281 236.1875 C 192.117188 235.816406 191.90625 235.425781 191.734375 235.011719 C 191.566406 234.601562 191.4375 234.175781 191.351562 233.738281 C 191.261719 233.304688 191.21875 232.863281 191.21875 232.417969 C 191.21875 231.96875 191.261719 231.527344 191.351562 231.09375 C 191.4375 230.65625 191.566406 230.230469 191.734375 229.820312 C 191.90625 229.40625 192.117188 229.015625 192.363281 228.644531 C 192.609375 228.273438 192.890625 227.933594 193.207031 227.617188 C 193.523438 227.300781 193.867188 227.019531 194.234375 226.773438 C 194.605469 226.527344 194.996094 226.316406 195.410156 226.144531 C 195.820312 225.976562 196.246094 225.847656 196.683594 225.757812 C 197.121094 225.671875 197.5625 225.628906 198.007812 225.628906 C 198.453125 225.628906 198.894531 225.671875 199.332031 225.757812 C 199.769531 225.847656 200.191406 225.976562 200.605469 226.144531 C 201.015625 226.316406 201.40625 226.527344 201.777344 226.773438 C 202.148438 227.019531 202.492188 227.300781 202.804688 227.617188 C 203.121094 227.933594 203.402344 228.273438 203.648438 228.644531 C 203.898438 229.015625 204.105469 229.40625 204.277344 229.820312 C 204.445312 230.230469 204.574219 230.65625 204.664062 231.09375 C 204.75 231.527344 204.792969 231.96875 204.792969 232.417969 Z M 204.792969 232.417969 " fill-opacity="1" fill-rule="nonzero"/><g clip-path="url(#id1)"><path fill="#07a5c3" d="M 187.589844 31.597656 C 230.664062 31.597656 269.679688 49.0625 297.90625 77.292969 C 326.136719 105.519531 343.597656 144.511719 343.597656 187.589844 C 343.597656 230.664062 326.136719 269.679688 297.90625 297.90625 C 269.679688 326.136719 230.664062 343.597656 187.589844 343.597656 C 144.511719 343.597656 105.519531 326.136719 77.292969 297.90625 C 49.0625 269.679688 31.597656 230.664062 31.597656 187.589844 C 31.597656 144.511719 49.0625 105.519531 77.292969 77.292969 C 105.519531 49.0625 144.511719 31.597656 187.589844 31.597656 Z M 288.742188 86.457031 C 262.847656 60.5625 227.097656 44.546875 187.589844 44.546875 C 148.097656 44.546875 112.328125 60.5625 86.457031 86.457031 C 60.5625 112.328125 44.546875 148.097656 44.546875 187.589844 C 44.546875 227.097656 60.5625 262.847656 86.457031 288.742188 C 112.328125 314.636719 148.097656 330.628906 187.589844 330.628906 C 227.097656 330.628906 262.847656 314.636719 288.742188 288.742188 C 314.636719 262.847656 330.628906 227.097656 330.628906 187.589844 C 330.628906 148.097656 314.636719 112.328125 288.742188 86.457031 Z M 288.742188 86.457031 " fill-opacity="1" fill-rule="nonzero"/></g></svg>